<svg xmlns="http://www.w3.org/2000/svg" version="1.1" viewBox="-5.0 -10.0 110.0 135.0">
 <path d="m34.922 9.375c-7.6562 0-13.887 7.5977-13.887 16.934 0 7.043 3.6406 13.371 8.9727 15.828l-0.75391 42.719c-0.027344 1.5312 0.55078 2.9805 1.625 4.0742 1.0742 1.0938 2.5117 1.6953 4.043 1.6953s2.9688-0.60156 4.043-1.6953c1.0742-1.0938 1.6523-2.5391 1.625-4.0742l-0.75391-42.719c5.3359-2.457 8.9766-8.7891 8.9766-15.828 0-9.3359-6.2305-16.934-13.887-16.934zm2.8672 30.312c-0.61719 0.21875-1.0273 0.80469-1.0156 1.4609l0.77344 43.762c0.011719 0.71094-0.25391 1.3789-0.75391 1.8867-0.99609 1.0117-2.7539 1.0117-3.7461 0-0.5-0.50781-0.76562-1.1758-0.75391-1.8867l0.77344-43.762c0.011719-0.65625-0.39844-1.2422-1.0156-1.4609-4.6992-1.6562-7.9766-7.1602-7.9766-13.383 0-7.6602 4.8633-13.891 10.844-13.891s10.844 6.2305 10.844 13.891c0 6.2227-3.2812 11.723-7.9805 13.383zm37.473-30.312h-0.40234c-2.043 0-3.7031 1.6602-3.7031 3.7031v14.484c0 0.25781-0.12891 0.50391-0.29297 0.57031-0.28516 0.10938-0.48047 0.035157-0.59766-0.042968-0.074219-0.050782-0.25-0.19922-0.25-0.47266v-14.535c0-2.043-1.6602-3.7031-3.7031-3.7031s-3.7031 1.6602-3.7031 3.7031v14.484c0 0.25781-0.12891 0.50391-0.29297 0.57031-0.28516 0.10938-0.48047 0.035156-0.59766-0.042969-0.074219-0.050781-0.25-0.19922-0.25-0.47266v-14.535c0-2.043-1.6602-3.7031-3.7031-3.7031h-0.40234c-2.043 0-3.7031 1.6602-3.7031 3.7031v18.961c0 4.8789 3.1836 9.1719 7.7344 10.652l-0.74219 41.984c-0.050782 2.8672 1.8633 5.3242 4.5469 5.8398 0.37109 0.070312 0.74219 0.10937 1.1133 0.10937 1.332 0 2.6211-0.46094 3.6484-1.3281 1.3164-1.1055 2.0547-2.7227 2.0234-4.4414l-0.74609-42.164c4.5508-1.4805 7.7344-5.7734 7.7344-10.652v-18.961c0-2.043-1.6602-3.7031-3.7031-3.7031zm0.66406 22.664c0 3.8711-2.75 7.2344-6.5352 7.9961-0.71875 0.14453-1.2344 0.78516-1.2188 1.5195l0.76953 43.355c0.015625 0.79688-0.32812 1.5469-0.9375 2.0586-0.61719 0.51953-1.4102 0.71875-2.2305 0.5625-1.2109-0.23438-2.1055-1.4375-2.082-2.8008l0.76562-43.176c0.011719-0.73438-0.5-1.3711-1.2188-1.5195-3.7852-0.76562-6.5352-4.125-6.5352-7.9961v-18.961c0-0.36719 0.29688-0.66406 0.66406-0.66406h0.40234c0.36719 0 0.66406 0.29688 0.66406 0.66406v14.535c0 1.1914 0.58594 2.3008 1.5664 2.9766 1 0.6875 2.2422 0.82422 3.4102 0.37891 1.3438-0.51562 2.2461-1.8867 2.2461-3.4102v-14.484c0-0.36719 0.29688-0.66406 0.66406-0.66406 0.36719 0 0.66406 0.29688 0.66406 0.66406v14.535c0 1.1914 0.58594 2.3008 1.5664 2.9766 1 0.6875 2.2422 0.82422 3.4102 0.37891 1.3438-0.51562 2.2461-1.8867 2.2461-3.4102v-14.484c0-0.36719 0.29688-0.66406 0.66406-0.66406h0.40234c0.36719 0 0.66406 0.29688 0.66406 0.66406v18.961z"/></svg>
